{"title":"Theatre of Tragedy - Last Curtain Call 2011.mp4","uid":11033627,"size":1542916195,"categoryP":"video","categoryS":"music_videos","magnet":"?xt=urn:btih:c8a84bb37bcf3d7ff1727202cc5f6cef93537d9c&amp;dn=Theatre+of+Tragedy+-+Last+Curtain+Call+2011.mp4&amp;tr=udp%3A%2F%2Ftracker.openbittorrent.com%3A80&amp;tr=udp%3A%2F%2Fopen.demonii.com%3A1337&amp;tr=udp%3A%2F%2Ftracker.coppersurfer.tk%3A6969&amp;tr=udp%3A%2F%2Fexodus.desync.com%3A6969","seeders":1,"leechers":1,"uploader":"cheryss","files":1,"time":1410754771,"description":" &lt;a href=&quot;\nhttp://imagelink.cz/images/57848sos.jpg&quot; rel=&quot;nofollow&quot; target=&quot;_NEW&quot;&gt;\nhttp://imagelink.cz/images/57848sos.jpg&lt;/a&gt;\n\n\nGeneral\nComplete name                    : C:UsersondrejDesktopTheatre of Tragedy - Last Curtain Call 2011.mp4\nFormat                           : MPEG-4\nFormat profile                   : Base Media\nCodec ID                         : isom\nFile size                        : 1.44 GiB\nDuration                         : 1h 34mn\nOverall bit rate                 : 2 172 Kbps\nEncoded date                     : UTC 2014-09-12 19:13:45\nTagged date                      : UTC 2014-09-12 19:13:45\nWriting application              : FormatFactory : www.pcfreetime.com\n\nVideo\nID                               : 1\nFormat                           : MPEG-4 Visual\nFormat profile                   : Simple@L1\nFormat settings, BVOP            : No\nFormat settings, QPel            : No\nFormat settings, GMC             : No warppoints\nFormat settings, Matrix          : Default (H.263)\nCodec ID                         : 20\nDuration                         : 1h 34mn\nBit rate mode                    : Variable\nBit rate                         : 2 044 Kbps\nMaximum bit rate                 : 10.4 Mbps\nWidth                            : 1 280 pixels\nHeight                           : 720 pixels\nDisplay aspect ratio             : 16:9\nFrame rate mode                  : Constant\nFrame rate                       : 30.000 fps\nColor space                      : YUV\nChroma subsampling               : 4:2:0\nBit depth                        : 8 bits\nScan type                        : Progressive\nCompression mode                 : Lossy\nBits/(Pixel*Frame)               : 0.074\nStream size                      : 1.35 GiB (94%)\nWriting library                  : Lavc53.8.0\nEncoded date                     : UTC 2014-09-12 19:13:45\nTagged date                      : UTC 2014-09-12 19:15:23\n\nAudio\nID                               : 2\nFormat                           : AAC\nFormat/Info                      : Advanced Audio Codec\nFormat profile                   : LC\nCodec ID                         : 40\nDuration                         : 1h 34mn\nBit rate mode                    : Variable\nBit rate                         : 126 Kbps\nMaximum bit rate                 : 192 Kbps\nChannel(s)                       : 2 channels\nChannel positions                : Front: L R\nSampling rate                    : 44.1 KHz\nCompression mode                 : Lossy\nStream size                      : 85.1 MiB (6%)\nEncoded date                     : UTC 2014-09-12 19:15:03\nTagged date                      : UTC 2014-09-12 19:15:23\n\n &lt;a href=&quot;\nhttp://imagelink.cz/images/aaaaya.jpg&quot; rel=&quot;nofollow&quot; target=&quot;_NEW&quot;&gt;\nhttp://imagelink.cz/images/aaaaya.jpg&lt;/a&gt;\n","torrent":{"xt":"urn:btih:c8a84bb37bcf3d7ff1727202cc5f6cef93537d9c","amp;dn":"Theatre+of+Tragedy+-+Last+Curtain+Call+2011.mp4","amp;tr":["udp%3A%2F%2Ftracker.openbittorrent.com%3A80","udp%3A%2F%2Fopen.demonii.com%3A1337","udp%3A%2F%2Ftracker.coppersurfer.tk%3A6969","udp%3A%2F%2Fexodus.desync.com%3A6969"],"infoHash":"c8a84bb37bcf3d7ff1727202cc5f6cef93537d9c","infoHashBuffer":{"type":"Buffer","data":[200,168,75,179,123,207,61,127,241,114,114,2,204,95,108,239,147,83,125,156]},"announce":[],"urlList":[]}}